<?xml version="1.0" standalone="no"?><!DOCTYPE svg PUBLIC "-//W3C//DTD SVG 1.1//EN" "http://www.w3.org/Graphics/SVG/1.1/DTD/svg11.dtd"><svg t="1715482026115" class="icon" viewBox="0 0 1024 1024" version="1.1" xmlns="http://www.w3.org/2000/svg" p-id="1476" xmlns:xlink="http://www.w3.org/1999/xlink" width="200" height="200"><path d="M686.2 407.5c4 0 8 0.1 12 0.2-25.3-114.3-145.1-200.8-288.9-200.8-162.3 0-293.9 110.1-293.9 246 0 79.4 44.9 150 114.6 195l-29.4 85.2 97.3-52.5c43 14.7 88.6 20.6 133.9 17.6-8.4-21.7-12.7-44.7-12.7-68 0.2-123 119.7-222.7 267.1-222.7z m-175.4-79.1c24 0 43.4 19.2 43.4 42.8 0 23.6-19.5 42.7-43.4 42.7-23.8 0.2-43.2-18.9-43.4-42.7 0-23.6 19.4-42.8 43.4-42.8zM308.9 414c-23.8 0.2-43.2-18.9-43.4-42.7 0-23.6 19.4-42.8 43.4-42.8s43.4 19.1 43.4 42.8c0 23.5-19.5 42.7-43.4 42.7z m625.5 216.3c0 70.2-41.8 132.2-105.8 169.7l24.7 71.6-84.8-45.8c-26.7 7.8-54.3 11.7-82.1 11.6-137 0-248.1-92.7-248.1-207.1 0-114.3 111.1-207.1 248.1-207.1 136.9 0 248 92.7 248 207.1z m-325.6-29.7c9.1 0.1 18-3.5 24.5-9.9s10.2-15.2 10.3-24.3c-0.1-9.1-3.8-17.9-10.3-24.3-6.5-6.4-15.3-10-24.5-9.9-9.1-0.1-17.9 3.5-24.4 9.9s-10.2 15.2-10.3 24.3c-0.1 18.9 15.5 34.2 34.7 34.2z m161.6 0c9.1 0.1 18-3.5 24.5-9.9s10.2-15.2 10.3-24.3c-0.1-9.1-3.8-17.9-10.3-24.3-6.5-6.4-15.3-10-24.5-9.9-9.1-0.1-17.9 3.5-24.4 9.9s-10.2 15.2-10.3 24.3c0 18.9 15.5 34.2 34.7 34.2z m0 0" p-id="1477"></path></svg>